<?xml version="1.0" encoding="UTF-8" standalone="no"?>
<svg
   xmlns:dc="http://purl.org/dc/elements/1.1/"
   xmlns:cc="http://creativecommons.org/ns#"
   xmlns:rdf="http://www.w3.org/1999/02/22-rdf-syntax-ns#"
   xmlns:svg="http://www.w3.org/2000/svg"
   xmlns="http://www.w3.org/2000/svg"
   xmlns:sodipodi="http://sodipodi.sourceforge.net/DTD/sodipodi-0.dtd"
   xmlns:inkscape="http://www.inkscape.org/namespaces/inkscape"
   version="1.1"
   id="svg114"
   width="95.559044"
   height="377.50021"
   viewBox="0 0 95.559044 377.50021"
   sodipodi:docname="fShapeSoundHole.svg"
   inkscape:version="1.0.1 (3bc2e813f5, 2020-09-07)">
  <metadata
     id="metadata120">
    <rdf:RDF>
      <cc:Work
         rdf:about="">
        <dc:format>image/svg+xml</dc:format>
        <dc:type
           rdf:resource="http://purl.org/dc/dcmitype/StillImage" />
        <dc:title></dc:title>
      </cc:Work>
    </rdf:RDF>
  </metadata>
  <defs
     id="defs118" />
  <sodipodi:namedview
     pagecolor="#ffffff"
     bordercolor="#666666"
     borderopacity="1"
     objecttolerance="10"
     gridtolerance="10"
     guidetolerance="10"
     inkscape:pageopacity="0"
     inkscape:pageshadow="2"
     inkscape:window-width="3840"
     inkscape:window-height="2066"
     id="namedview116"
     showgrid="false"
     fit-margin-top="0"
     fit-margin-left="0"
     fit-margin-right="0"
     fit-margin-bottom="0"
     inkscape:zoom="2.5846154"
     inkscape:cx="114.32235"
     inkscape:cy="188.5097"
     inkscape:window-x="2149"
     inkscape:window-y="951"
     inkscape:window-maximized="1"
     inkscape:current-layer="g122" />
  <g
     inkscape:groupmode="layer"
     inkscape:label="Image"
     id="g122"
     transform="translate(-3.6776509,-6.4903016)">
    <path
       style="fill:#000000"
       d="M 21.065481,383.13664 C 8.7389814,378.84846 3.7613209,372.06704 3.6808909,359.45238 c -0.0419,-6.57152 0.2938,-8.00938 2.71169,-11.61464 4.1807701,-6.23384 10.9030701,-9.4751 19.7088501,-9.50293 3.89975,-0.0123 7.71224,0.49363 8.4722,1.12434 0.75997,0.63072 2.41903,0.99971 3.6868,0.81999 2.07347,-0.29393 2.39762,-1.08025 3.22646,-7.82676 3.05879,-24.89739 -0.20195,-64.51534 -7.78384,-94.5734 -2.88257,-11.42784 -7.9751,-24.9261 -13.74277,-36.4266 -5.65829,-11.28241 -5.73219,-11.53784 -3.90592,-13.5 6.71951,-7.21949 10.43049,-23.07934 13.10322,-56 3.13636,-38.631291 4.70567,-52.215891 8.02872,-69.499999 6.15069,-31.991478 14.65053,-48.115216 28.49238,-54.0485264 12.39945,-5.315024 27.56165,0.891262 31.9127,13.0626984 5.784029,16.180011 -4.26396,30.985828 -21.02857,30.985828 -3.03846,0 -6.53087,-0.520257 -7.7609,-1.156128 -4.02919,-2.082898 -5.70095,-2.843872 -6.24762,-2.843872 -3.71759,0 -8.09722,45.228318 -7.06887,72.999999 0.59729,16.13035 0.99537,19.60188 4.2428,37 2.99435,16.04223 10.60253,35.67692 17.37249,44.83379 l 2.22487,3.00929 -2.05351,3.32846 c -6.7243,10.89916 -9.20572,28.50178 -9.20844,65.32233 -0.005,62.77802 -9.75285,97.87487 -29.62674,106.66603 -5.54106,2.45108 -12.86111,3.09342 -17.37141,1.52436 z"
       id="path126"
       sodipodi:nodetypes="sssssssssssssssssssscscss" />
  </g>
</svg>
