<?xml version="1.0" encoding="UTF-8" standalone="no"?>
<svg
   xmlns:dc="http://purl.org/dc/elements/1.1/"
   xmlns:cc="http://creativecommons.org/ns#"
   xmlns:rdf="http://www.w3.org/1999/02/22-rdf-syntax-ns#"
   xmlns:svg="http://www.w3.org/2000/svg"
   xmlns="http://www.w3.org/2000/svg"
   xmlns:sodipodi="http://sodipodi.sourceforge.net/DTD/sodipodi-0.dtd"
   xmlns:inkscape="http://www.inkscape.org/namespaces/inkscape"
   version="1.1"
   id="svg10"
   width="305.48218"
   height="256.82376"
   viewBox="0 0 305.48218 256.82376"
   sodipodi:docname="octopus.svg"
   inkscape:version="1.0.1 (3bc2e813f5, 2020-09-07)">
  <metadata
     id="metadata16">
    <rdf:RDF>
      <cc:Work
         rdf:about="">
        <dc:format>image/svg+xml</dc:format>
        <dc:type
           rdf:resource="http://purl.org/dc/dcmitype/StillImage" />
        <dc:title></dc:title>
      </cc:Work>
    </rdf:RDF>
  </metadata>
  <defs
     id="defs14" />
  <sodipodi:namedview
     pagecolor="#ffffff"
     bordercolor="#666666"
     borderopacity="1"
     objecttolerance="10"
     gridtolerance="10"
     guidetolerance="10"
     inkscape:pageopacity="0"
     inkscape:pageshadow="2"
     inkscape:window-width="3840"
     inkscape:window-height="2066"
     id="namedview12"
     showgrid="false"
     inkscape:zoom="2.330927"
     inkscape:cx="254.40538"
     inkscape:cy="191.11685"
     inkscape:window-x="2149"
     inkscape:window-y="951"
     inkscape:window-maximized="1"
     inkscape:current-layer="g18" />
  <g
     inkscape:groupmode="layer"
     inkscape:label="Image"
     id="g18"
     transform="translate(-13.562499,-7.7098582)">
    <path
       style="fill:#000000"
       d="m 114.70935,262.76698 c -3.26464,-1.07558 -7.28146,-2.95055 -8.92627,-4.16661 -3.15664,-2.33381 -2.84654,-2.35251 -13.888008,0.83721 -2.49304,0.7202 -2.1841,-1.4698 0.75,-5.3166 3.00403,-3.93849 3.12092,-5.53921 0.57285,-7.84518 -1.05993,-0.95923 -2.2058,-3.39147 -2.54637,-5.40499 l -0.61922,-3.66094 -9.70363,-0.0699 c -12.85624,-0.0925 -19.3585,-2.55067 -27.29661,-10.31929 -4.2312,-4.14085 -6.04503,-6.78712 -6.92322,-10.10051 -4.29053,-16.18804 10.21284,-34.30971 29.56049,-36.93524 8.53821,-1.15866 13.77146,0.30758 17.76974,4.97866 4.06416,4.74806 5.58379,9.20667 6.37226,18.69623 0.669798,8.06134 1.720208,8.9344 5.818488,4.83612 5.90347,-5.90347 4.62289,-11.59806 -5.691628,-25.3101 -10.17662,-13.52869 -11.76307,-16.93676 -11.79119,-25.33024 -0.0186,-5.54086 0.42213,-7.24158 2.85035,-11 1.57977,-2.44518 3.82977,-5.43946 5,-6.65397 2.55991,-2.65676 2.84436,-4.22439 0.37769,-2.08148 -4.11866,3.57807 -29.30685,18.72642 -32.95523,19.8195 -2.46243,0.73776 -8.35747,1.05515 -15.39279,0.82875 -10.0372,-0.32296 -12.08598,-0.70227 -17.11642,-3.16885 -17.42291,-8.54303 -22.4565997,-30.55047 -11.8112,-51.6389 7.88861,-15.627241 24.6946,-24.097961 36.60101,-18.447991 4.79636,2.27601 10.12217,8.56027 11.45754,13.51943 2.03992,7.575691 -0.46268,18.378731 -5.17639,22.345051 -6.86035,5.77261 -10.83734,1.39667 -8.31722,-9.15156 1.87722,-7.85731 1.83816,-11.95689 -0.12109,-12.708721 -2.35459,-0.90354 -7.95336,-0.73423 -10.73869,0.32475 -4.39447,1.670781 -9.62519,8.073531 -11.29877,13.830471 -2.00938,6.91203 -1.23855,10.87565 3.10101,15.94546 6.57639,7.68303 14.03056,9.13198 24.6923,4.79973 7.77654,-3.15989 19.42811,-10.40813 23.32594,-14.51066 l 3,-3.15755 -6.24039,-5.6696 c -9.04659,-8.21912 -10.5558,-12.212061 -11.06956,-29.287001 -0.34301,-11.39979 -0.12932,-14.20832 1.31217,-17.24603 2.8772,-6.06326 12.35113,-13.87787 24.16867,-19.93562 14.726248,-7.54878 16.686428,-9.7531 19.297448,-21.70095 2.67873,-12.257611 3.80757,-15.0000008 6.17441,-15.0000008 2.56385,0 3.59816,2.8753398 4.79371,13.3263108 1.90749,16.67459 -1.55401,22.92646 -18.91601,34.16455 -5.236248,3.38932 -11.027578,7.88191 -12.869628,9.98352 -3.26858,3.72917 -3.34077,4.00584 -3,11.49673 0.38796,8.52814 2.54128,12.91375 8.259,16.82087 7.295138,4.98504 28.074838,6.965901 37.912028,3.61402 2.57298,-0.8767 4.67814,-1.74208 4.67814,-1.92308 0,-0.18099 -1.35,-1.67907 -3,-3.32907 -2.42361,-2.42361 -3,-3.84479 -3,-7.39692 0,-3.58381 0.65057,-5.15697 3.51792,-8.50683 2.03648,-2.37916 3.08927,-4.37484 2.5,-4.73902 -0.55985,-0.34601 -1.01792,-1.27755 -1.01792,-2.07009 0,-1.04117 1.24858,-1.44099 4.5,-1.44099 2.475,0 4.5,-0.23533 4.5,-0.52297 0,-0.28764 -2.00777,-4.00014 -4.46172,-8.25 -6.87178,-11.90091 -7.83333,-19.68276 -3.48781,-28.22703 2.4859,-4.88782 8.46638,-10.36146 14.94953,-13.68254 4.89251,-2.50626 6.54931,-2.81746 15,-2.81746 8.36161,0 10.24864,0.34577 15.74748,2.88543 6.78735,3.13478 13.49112,9.54804 15.82878,15.14284 3.62732,8.68141 0.92101,19.67945 -7.42949,30.19232 -2.28072,2.87132 -4.14677,5.45882 -4.14677,5.75 0,1.14727 7.85688,0.46349 8.27976,-0.72059 0.24554,-0.6875 0.83251,-0.88803 1.30437,-0.44562 0.47236,0.44286 0.38312,1.11701 -0.19855,1.5 -0.58108,0.38259 -1.55329,1.59562 -2.16047,2.69562 -0.92708,1.67955 -0.61114,2.51086 1.97182,5.1883 3.95528,4.09996 4.28848,10.10165 0.76882,13.84816 -1.26883,1.35061 -1.99103,2.7716 -1.60488,3.15775 1.26978,1.26978 15.01756,-1.70135 21.1865,-4.57877 16.56604,-7.72701 20.09661,-16.57013 12.29255,-30.78953 -3.58002,-6.52298 -4.15241,-8.39422 -4.10507,-13.42012 0.0645,-6.8442 3.05472,-13.90769 7.11015,-16.79541 3.75257,-2.67208 10.55321,-4.3139 14.66982,-3.54162 4.97253,0.93285 4.85052,4.53106 -0.26482,7.80966 -5.53858,3.54987 -10.12715,8.75733 -10.83494,12.29631 -0.56521,2.82604 0.0409,3.83675 6.43765,10.73571 7.8142,8.42762 8.63537,10.58353 7.97591,20.94011 -0.587,9.21865 -4.52907,14.81521 -17.4748,24.808941 -5.66947,4.37666 -10.56884,8.37941 -10.88748,8.89499 -1.09478,1.77138 2.03965,6.44744 5.53481,8.25704 4.7003,2.43355 17.02103,1.91096 22.54612,-0.9563 7.01211,-3.63896 7.81166,-5.65481 8.58369,-21.641411 1.30824,-27.08984 9.02563,-39.74783 25.24664,-41.40933 13.65533,-1.3987 25.58003,8.10566 30.61259,24.39919 2.56052,8.28998 2.5466,14.7866 -0.0465,21.717321 -2.34307,6.26242 -6.39561,10.19797 -11.48408,11.15258 -4.43019,0.8311 -6.4596,-0.78623 -6.4596,-5.14796 0,-2.81333 0.68731,-3.8024 4.43329,-6.379701 5.35,-3.68091 5.88437,-5.09793 4.55862,-12.08859 -1.24191,-6.54856 -4.36177,-11.48764 -10.36224,-16.40457 -5.53688,-4.53706 -9.77074,-4.61276 -13.0308,-0.23299 -1.94305,2.61042 -2.13599,4.46638 -2.59887,24.99999 -0.57085,25.323291 -0.60347,25.441151 -9.17251,33.145461 -7.43277,6.68269 -20.76768,13.05172 -34.69686,16.57194 l -4.36937,1.10423 2.86937,3.02553 c 2.70938,2.85683 18.93989,15.8331 19.80378,15.8331 0.22139,0 1.40176,-3.0375 2.62303,-6.75 4.64006,-14.10506 9.70601,-20.84398 17.82201,-23.70747 8.51281,-3.00349 19.55436,-1.13609 26.30699,4.44916 9.10805,7.53346 12.22155,23.88447 6.59375,34.62805 -2.9993,5.72573 -7.31823,9.79514 -13.28019,12.51292 -3.30563,1.50688 -6.65536,1.82723 -19.29651,1.84538 l -15.29651,0.022 -1.70349,3.09849 c -3.41877,6.21841 -5.31177,8.02631 -8.06951,7.70674 -2.16138,-0.25046 -2.69009,-0.88682 -2.9467,-3.54664 -0.17377,-1.80121 0.38162,-4.23272 1.25,-5.47251 0.8595,-1.2271 1.56272,-3.41523 1.56272,-4.86251 0,-2.35544 -0.99318,-3.08014 -9.46969,-6.90988 -12.61442,-5.69926 -24.66092,-12.95759 -31.77514,-19.14534 -5.01447,-4.36146 -6.03871,-4.87792 -7.41258,-3.73771 -1.31425,1.09073 -1.50604,2.86804 -1.09237,10.12313 0.41068,7.20283 1.06878,9.9519 3.6257,15.14575 5.99884,12.18539 14.39796,17.25339 33.40546,20.15679 21.29216,3.25237 27.97696,5.78345 32.86489,12.44369 2.78469,3.79439 4.10103,12.49178 2.82263,18.64982 -2.35469,11.34238 -10.30441,18.35014 -20.81675,18.35014 -11.94528,0 -21.15216,-7.99977 -21.15216,-18.37891 0,-5.41752 1.88367,-7.62109 6.51472,-7.62109 4.38404,0 6.74336,3.10741 5.87475,7.73749 -0.85395,4.55192 0.86958,6.26251 6.3099,6.26251 3.59004,0 5.02173,-0.56726 7.37755,-2.92308 5.97628,-5.97627 2.87152,-14.92601 -5.73832,-16.54122 -1.978,-0.37108 -12.87586,-0.35995 -24.21748,0.0247 -20.23974,0.68646 -20.71359,0.65621 -25.62112,-1.63563 -9.11913,-4.25869 -18.25054,-15.75529 -23.10972,-29.09551 -0.8706,-2.39013 -2.12788,-11.39507 -2.80696,-20.10419 -1.44959,-18.5907 -2.50783,-21.0186 -9.38437,-21.53019 -5.54107,-0.41223 -8.54251,1.76682 -11.91936,8.65346 -2.54473,5.18964 -2.76983,6.59176 -2.75355,17.15165 0.0165,10.69491 0.32529,12.51511 4.41098,26 4.09551,13.51735 4.39899,15.31323 4.47811,26.5 0.0995,14.07629 -1.25123,17.87702 -9.60016,27.01207 -9.96537,10.9037 -24.77224,14.9857 -38.25068,10.54504 z m 19.04418,-11.05729 c 7.35165,-3.15316 12.00362,-12.08759 13.10623,-25.1714 0.72599,-8.61482 -0.4072,-12.9317 -8.29187,-31.58776 -8.1442,-19.27014 -10.98532,-27.98444 -12.53036,-38.43312 -0.67563,-4.56915 -1.34745,-8.46466 -1.49294,-8.6567 -0.14548,-0.19203 -2.58615,0.91444 -5.42371,2.45883 -6.99322,3.8062 -8.97582,6.54861 -8.97582,12.41575 0,4.14515 0.79006,5.95729 6.15394,14.11514 8.38994,12.76014 9.7979,16.14839 9.8241,23.64156 0.0375,10.72659 -3.34475,15.51071 -15.68913,22.19187 -3.92918,2.1266 -6.93836,4.44914 -7.14371,5.51363 -0.60619,3.14251 4.01048,20.34329 5.92522,22.07611 4.87152,4.40866 16.07824,5.06454 24.53805,1.43609 z M 87.680822,218.30738 c 1.76929,-1.29373 1.82379,-1.85172 0.70286,-7.19579 -0.66833,-3.18632 -2.23293,-7.8427 -3.47688,-10.34751 -1.916,-3.85805 -2.76586,-4.60266 -5.55966,-4.87114 -4.96894,-0.47752 -11.9214,3.98611 -14.27198,9.16292 -3.09848,6.82393 -2.33879,10.81443 2.56991,13.49928 2.99354,1.63734 17.70655,1.4554 20.03575,-0.24776 z M 288.79163,172.63892 c 5.89577,-2.8541 8.75541,-7.67033 8.08513,-13.61705 -0.72668,-6.44708 -4.84706,-10.4245 -11.45718,-11.05964 -4.81893,-0.46304 -4.99002,-0.38247 -9.09799,4.28444 -3.826,4.34655 -8.17653,14.50961 -8.17653,19.10076 0,3.73571 13.81267,4.59972 20.64657,1.29149 z"
       id="path22" />
  </g>
</svg>
